<?xml version="1.0" encoding="utf-8" ?>
<svg xmlns="http://www.w3.org/2000/svg" xmlns:ev="http://www.w3.org/2001/xml-events" xmlns:xlink="http://www.w3.org/1999/xlink" baseProfile="full" height="900" version="1.1" viewBox="0 0 1600 900" width="1600">
  <defs>
    <marker id="arrow-dark" markerHeight="10" markerUnits="strokeWidth" markerWidth="10" orient="auto" refX="10" refY="5">
      <path d="M 0 0 L 10 5 L 0 10 z" fill="#263238"/>
    </marker>
    <marker id="arrow-teal" markerHeight="10" markerUnits="strokeWidth" markerWidth="10" orient="auto" refX="10" refY="5">
      <path d="M 0 0 L 10 5 L 0 10 z" fill="#00A499"/>
    </marker>
    <marker id="arrow-orange" markerHeight="10" markerUnits="strokeWidth" markerWidth="10" orient="auto" refX="10" refY="5">
      <path d="M 0 0 L 10 5 L 0 10 z" fill="#EA7600"/>
    </marker>
    <marker id="arrow-red" markerHeight="10" markerUnits="strokeWidth" markerWidth="10" orient="auto" refX="10" refY="5">
      <path d="M 0 0 L 10 5 L 0 10 z" fill="#C83E4D"/>
    </marker>
  </defs>
  <rect fill="#FFFFFF" height="900" width="1600" x="0" y="0"/>
  <text fill="#263238" font-family="Arial, Helvetica, sans-serif" font-size="46" font-weight="700" x="70" y="80">Colapso de modos: muestras nítidas, cobertura pobre</text>
  <text fill="#607D8B" font-family="Arial, Helvetica, sans-serif" font-size="24" x="72" y="120">Un generador puede producir ejemplos de alta calidad y aun así ignorar grandes regiones de la distribución real.</text>
  <line stroke="#00A499" stroke-width="5" x1="70" x2="1530" y1="142" y2="142"/>
  <rect fill="#F4F7F8" height="520" opacity="1.0" rx="24" ry="24" stroke="#EA7600" stroke-width="4" width="470" x="55" y="205"/>
  <text fill="#EA7600" font-family="Arial, Helvetica, sans-serif" font-size="30" font-weight="700" opacity="1.0" text-anchor="middle" x="290.0" y="260">Datos reales</text>
  <line stroke="#607D8B" stroke-width="2" x1="100" x2="480" y1="575" y2="575"/>
  <path d="M 100.0 574.2 L 101.4 574.0 L 102.7 573.7 L 104.1 573.3 L 105.4 572.9 L 106.8 572.3 L 108.2 571.6 L 109.5 570.8 L 110.9 569.7 L 112.3 568.5 L 113.6 567.0 L 115.0 565.2 L 116.3 563.1 L 117.7 560.7 L 119.1 557.9 L 120.4 554.7 L 121.8 551.0 L 123.2 546.8 L 124.5 542.1 L 125.9 536.8 L 127.2 531.0 L 128.6 524.6 L 130.0 517.7 L 131.3 510.2 L 132.7 502.2 L 134.1 493.7 L 135.4 484.8 L 136.8 475.6 L 138.1 466.1 L 139.5 456.5 L 140.9 446.8 L 142.2 437.3 L 143.6 427.9 L 144.9 418.9 L 146.3 410.4 L 147.7 402.6 L 149.0 395.5 L 150.4 389.3 L 151.8 384.1 L 153.1 380.0 L 154.5 377.1 L 155.8 375.4 L 157.2 374.9 L 158.6 375.7 L 159.9 377.8 L 161.3 381.1 L 162.7 385.5 L 164.0 391.0 L 165.4 397.5 L 166.7 404.9 L 168.1 412.9 L 169.5 421.6 L 170.8 430.7 L 172.2 440.1 L 173.5 449.7 L 174.9 459.4 L 176.3 469.0 L 177.6 478.4 L 179.0 487.5 L 180.4 496.2 L 181.7 504.6 L 183.1 512.4 L 184.4 519.7 L 185.8 526.4 L 187.2 532.6 L 188.5 538.2 L 189.9 543.2 L 191.3 547.6 L 192.6 551.5 L 194.0 554.9 L 195.3 557.8 L 196.7 560.1 L 198.1 562.1 L 199.4 563.6 L 200.8 564.6 L 202.2 565.3 L 203.5 565.6 L 204.9 565.4 L 206.2 564.9 L 207.6 563.9 L 209.0 562.5 L 210.3 560.6 L 211.7 558.3 L 213.0 555.4 L 214.4 552.0 L 215.8 547.9 L 217.1 543.3 L 218.5 538.0 L 219.9 532.0 L 221.2 525.3 L 222.6 517.9 L 223.9 509.8 L 225.3 501.0 L 226.7 491.5 L 228.0 481.3 L 229.4 470.6 L 230.8 459.4 L 232.1 447.8 L 233.5 435.9 L 234.8 423.8 L 236.2 411.8 L 237.6 399.9 L 238.9 388.3 L 240.3 377.2 L 241.6 366.7 L 243.0 357.2 L 244.4 348.6 L 245.7 341.1 L 247.1 334.9 L 248.5 330.2 L 249.8 326.9 L 251.2 325.2 L 252.5 325.0 L 253.9 326.4 L 255.3 329.4 L 256.6 333.9 L 258.0 339.8 L 259.4 347.0 L 260.7 355.3 L 262.1 364.8 L 263.4 375.0 L 264.8 386.0 L 266.2 397.5 L 267.5 409.4 L 268.9 421.4 L 270.3 433.5 L 271.6 445.4 L 273.0 457.1 L 274.3 468.4 L 275.7 479.2 L 277.1 489.5 L 278.4 499.1 L 279.8 508.1 L 281.1 516.3 L 282.5 523.9 L 283.9 530.7 L 285.2 536.8 L 286.6 542.2 L 288.0 547.0 L 289.3 551.1 L 290.7 554.6 L 292.0 557.6 L 293.4 560.0 L 294.8 561.9 L 296.1 563.4 L 297.5 564.3 L 298.9 564.9 L 300.2 565.0 L 301.6 564.6 L 302.9 563.9 L 304.3 562.7 L 305.7 561.1 L 307.0 558.9 L 308.4 556.3 L 309.7 553.2 L 311.1 549.5 L 312.5 545.2 L 313.8 540.3 L 315.2 534.8 L 316.6 528.6 L 317.9 521.8 L 319.3 514.4 L 320.6 506.3 L 322.0 497.6 L 323.4 488.3 L 324.7 478.6 L 326.1 468.4 L 327.5 457.8 L 328.8 447.1 L 330.2 436.2 L 331.5 425.4 L 332.9 414.7 L 334.3 404.4 L 335.6 394.5 L 337.0 385.3 L 338.4 376.9 L 339.7 369.4 L 341.1 363.0 L 342.4 357.8 L 343.8 353.8 L 345.2 351.2 L 346.5 350.0 L 347.9 350.2 L 349.2 351.8 L 350.6 354.8 L 352.0 359.2 L 353.3 364.8 L 354.7 371.5 L 356.1 379.3 L 357.4 388.0 L 358.8 397.4 L 360.1 407.4 L 361.5 417.8 L 362.9 428.5 L 364.2 439.3 L 365.6 450.0 L 367.0 460.6 L 368.3 470.9 L 369.7 480.9 L 371.0 490.3 L 372.4 499.1 L 373.8 507.3 L 375.1 514.8 L 376.5 521.6 L 377.8 527.7 L 379.2 532.9 L 380.6 537.4 L 381.9 541.1 L 383.3 544.0 L 384.7 546.1 L 386.0 547.4 L 387.4 548.0 L 388.7 547.8 L 390.1 546.8 L 391.5 545.2 L 392.8 542.7 L 394.2 539.5 L 395.6 535.7 L 396.9 531.1 L 398.3 525.8 L 399.6 519.9 L 401.0 513.3 L 402.4 506.2 L 403.7 498.6 L 405.1 490.5 L 406.5 482.1 L 407.8 473.3 L 409.2 464.4 L 410.5 455.4 L 411.9 446.5 L 413.3 437.8 L 414.6 429.3 L 416.0 421.3 L 417.3 413.9 L 418.7 407.2 L 420.1 401.4 L 421.4 396.4 L 422.8 392.5 L 424.2 389.6 L 425.5 387.9 L 426.9 387.4 L 428.2 388.1 L 429.6 389.9 L 431.0 392.9 L 432.3 397.0 L 433.7 402.0 L 435.1 408.0 L 436.4 414.8 L 437.8 422.3 L 439.1 430.4 L 440.5 438.9 L 441.9 447.7 L 443.2 456.7 L 444.6 465.8 L 445.9 474.8 L 447.3 483.6 L 448.7 492.2 L 450.0 500.5 L 451.4 508.3 L 452.8 515.7 L 454.1 522.7 L 455.5 529.1 L 456.8 534.9 L 458.2 540.3 L 459.6 545.1 L 460.9 549.4 L 462.3 553.2 L 463.7 556.6 L 465.0 559.6 L 466.4 562.1 L 467.7 564.3 L 469.1 566.2 L 470.5 567.8 L 471.8 569.1 L 473.2 570.3 L 474.6 571.2 L 475.9 572.0 L 477.3 572.6 L 478.6 573.1 L 480.0 573.5" fill="none" stroke="#EA7600" stroke-width="7"/>
  <circle cx="165.00148250286176" cy="648.3432420217882" fill="#EA7600" opacity="0.75" r="7"/>
  <circle cx="154.1022731343706" cy="625.2834974220305" fill="#EA7600" opacity="0.75" r="7"/>
  <circle cx="145.18236601736265" cy="644.1160245445154" fill="#EA7600" opacity="0.75" r="7"/>
  <circle cx="171.24868539199758" cy="651.095095619612" fill="#EA7600" opacity="0.75" r="7"/>
  <circle cx="164.70090549693253" cy="634.6794277906514" fill="#EA7600" opacity="0.75" r="7"/>
  <circle cx="161.24616022536364" cy="638.6690081400695" fill="#EA7600" opacity="0.75" r="7"/>
  <circle cx="155.68755474056366" cy="629.2399261870976" fill="#EA7600" opacity="0.75" r="7"/>
  <circle cx="161.42847035859054" cy="651.9646005792729" fill="#EA7600" opacity="0.75" r="7"/>
  <circle cx="167.54295693555514" cy="635.2763753386756" fill="#EA7600" opacity="0.75" r="7"/>
  <circle cx="239.71495565482837" cy="630.3319257729644" fill="#EA7600" opacity="0.75" r="7"/>
  <circle cx="258.4325429125606" cy="635.8323897848236" fill="#EA7600" opacity="0.75" r="7"/>
  <circle cx="246.03621452180957" cy="617.8688075796794" fill="#EA7600" opacity="0.75" r="7"/>
  <circle cx="237.0127035262721" cy="638.1740748995808" fill="#EA7600" opacity="0.75" r="7"/>
  <circle cx="264.25318721122915" cy="623.3680516818918" fill="#EA7600" opacity="0.75" r="7"/>
  <circle cx="264.045152512281" cy="644.7300187896277" fill="#EA7600" opacity="0.75" r="7"/>
  <circle cx="268.57342345552297" cy="633.6770707114888" fill="#EA7600" opacity="0.75" r="7"/>
  <circle cx="264.1942370971234" cy="647.2431481622557" fill="#EA7600" opacity="0.75" r="7"/>
  <circle cx="264.07318848189493" cy="638.3999607511697" fill="#EA7600" opacity="0.75" r="7"/>
  <circle cx="344.79820346380154" cy="644.8906593985836" fill="#EA7600" opacity="0.75" r="7"/>
  <circle cx="367.541436384126" cy="619.2313484694191" fill="#EA7600" opacity="0.75" r="7"/>
  <circle cx="357.93114438632415" cy="647.9414892394749" fill="#EA7600" opacity="0.75" r="7"/>
  <circle cx="366.81935473165277" cy="623.1192030155302" fill="#EA7600" opacity="0.75" r="7"/>
  <circle cx="357.2514275761935" cy="652.2117181168121" fill="#EA7600" opacity="0.75" r="7"/>
  <circle cx="351.4645116978551" cy="646.5285141830246" fill="#EA7600" opacity="0.75" r="7"/>
  <circle cx="355.8433086190487" cy="621.9441688969439" fill="#EA7600" opacity="0.75" r="7"/>
  <circle cx="350.57374510802174" cy="627.2233420313881" fill="#EA7600" opacity="0.75" r="7"/>
  <circle cx="351.25998950223794" cy="639.6055291972916" fill="#EA7600" opacity="0.75" r="7"/>
  <circle cx="411.6290574028572" cy="627.3946477025758" fill="#EA7600" opacity="0.75" r="7"/>
  <circle cx="425.8268259253982" cy="643.4291380033562" fill="#EA7600" opacity="0.75" r="7"/>
  <circle cx="437.500266855055" cy="620.9607062737222" fill="#EA7600" opacity="0.75" r="7"/>
  <circle cx="420.4717092743603" cy="634.4360345306784" fill="#EA7600" opacity="0.75" r="7"/>
  <circle cx="411.2294304055273" cy="637.1167246070249" fill="#EA7600" opacity="0.75" r="7"/>
  <circle cx="450.7351610525709" cy="636.0902444539046" fill="#EA7600" opacity="0.75" r="7"/>
  <circle cx="425.2333909526995" cy="623.9882959523485" fill="#EA7600" opacity="0.75" r="7"/>
  <circle cx="437.8600234898099" cy="638.8654640325607" fill="#EA7600" opacity="0.75" r="7"/>
  <circle cx="431.58149963588625" cy="630.665614759193" fill="#EA7600" opacity="0.75" r="7"/>
  <text fill="#263238" font-family="Arial, Helvetica, sans-serif" font-size="22" font-weight="600" opacity="1.0" text-anchor="middle" x="290.0" y="675.0">4 modos presentes</text>
  <text fill="#263238" font-family="Arial, Helvetica, sans-serif" font-size="22" font-weight="600" opacity="1.0" text-anchor="middle" x="290.0" y="704.7">referencia de cobertura</text>
  <rect fill="#F4F7F8" height="520" opacity="1.0" rx="24" ry="24" stroke="#00A499" stroke-width="4" width="470" x="565" y="205"/>
  <text fill="#00A499" font-family="Arial, Helvetica, sans-serif" font-size="30" font-weight="700" opacity="1.0" text-anchor="middle" x="800.0" y="260">Buen generador</text>
  <line stroke="#607D8B" stroke-width="2" x1="610" x2="990" y1="575" y2="575"/>
  <path d="M 610.0 570.2 L 611.4 569.3 L 612.7 568.2 L 614.1 567.0 L 615.4 565.6 L 616.8 564.0 L 618.2 562.1 L 619.5 560.0 L 620.9 557.7 L 622.3 555.0 L 623.6 552.1 L 625.0 548.8 L 626.3 545.2 L 627.7 541.3 L 629.1 537.0 L 630.4 532.3 L 631.8 527.2 L 633.2 521.8 L 634.5 516.0 L 635.9 509.9 L 637.2 503.4 L 638.6 496.6 L 640.0 489.5 L 641.3 482.2 L 642.7 474.6 L 644.1 467.0 L 645.4 459.2 L 646.8 451.4 L 648.1 443.6 L 649.5 436.0 L 650.9 428.5 L 652.2 421.2 L 653.6 414.3 L 654.9 407.8 L 656.3 401.8 L 657.7 396.3 L 659.0 391.4 L 660.4 387.2 L 661.8 383.7 L 663.1 380.9 L 664.5 379.0 L 665.8 377.9 L 667.2 377.6 L 668.6 378.1 L 669.9 379.5 L 671.3 381.7 L 672.7 384.6 L 674.0 388.4 L 675.4 392.8 L 676.7 397.8 L 678.1 403.5 L 679.5 409.6 L 680.8 416.2 L 682.2 423.2 L 683.5 430.5 L 684.9 438.0 L 686.3 445.6 L 687.6 453.3 L 689.0 461.0 L 690.4 468.6 L 691.7 476.0 L 693.1 483.3 L 694.4 490.3 L 695.8 497.0 L 697.2 503.3 L 698.5 509.2 L 699.9 514.8 L 701.3 519.8 L 702.6 524.4 L 704.0 528.4 L 705.3 532.0 L 706.7 535.0 L 708.1 537.4 L 709.4 539.3 L 710.8 540.6 L 712.2 541.3 L 713.5 541.5 L 714.9 541.0 L 716.2 539.9 L 717.6 538.3 L 719.0 536.0 L 720.3 533.1 L 721.7 529.6 L 723.0 525.6 L 724.4 520.8 L 725.8 515.6 L 727.1 509.7 L 728.5 503.2 L 729.9 496.2 L 731.2 488.7 L 732.6 480.7 L 733.9 472.3 L 735.3 463.4 L 736.7 454.3 L 738.0 444.8 L 739.4 435.2 L 740.8 425.5 L 742.1 415.7 L 743.5 405.9 L 744.8 396.3 L 746.2 386.9 L 747.6 377.9 L 748.9 369.3 L 750.3 361.2 L 751.6 353.7 L 753.0 347.0 L 754.4 341.0 L 755.7 335.9 L 757.1 331.7 L 758.5 328.5 L 759.8 326.3 L 761.2 325.1 L 762.5 325.0 L 763.9 326.0 L 765.3 328.0 L 766.6 331.0 L 768.0 335.0 L 769.4 339.9 L 770.7 345.7 L 772.1 352.3 L 773.4 359.6 L 774.8 367.6 L 776.2 376.1 L 777.5 385.1 L 778.9 394.4 L 780.3 403.9 L 781.6 413.7 L 783.0 423.4 L 784.3 433.2 L 785.7 442.9 L 787.1 452.3 L 788.4 461.5 L 789.8 470.4 L 791.1 478.9 L 792.5 486.9 L 793.9 494.5 L 795.2 501.5 L 796.6 508.0 L 798.0 513.9 L 799.3 519.3 L 800.7 524.0 L 802.0 528.0 L 803.4 531.5 L 804.8 534.3 L 806.1 536.5 L 807.5 538.1 L 808.9 539.0 L 810.2 539.3 L 811.6 538.9 L 812.9 537.9 L 814.3 536.3 L 815.7 534.1 L 817.0 531.3 L 818.4 527.8 L 819.7 523.8 L 821.1 519.2 L 822.5 514.0 L 823.8 508.3 L 825.2 502.1 L 826.6 495.4 L 827.9 488.3 L 829.3 480.7 L 830.6 472.8 L 832.0 464.6 L 833.4 456.2 L 834.7 447.6 L 836.1 438.9 L 837.5 430.1 L 838.8 421.5 L 840.2 412.9 L 841.5 404.6 L 842.9 396.6 L 844.3 389.0 L 845.6 381.9 L 847.0 375.4 L 848.4 369.5 L 849.7 364.4 L 851.1 360.0 L 852.4 356.4 L 853.8 353.8 L 855.2 352.0 L 856.5 351.2 L 857.9 351.3 L 859.2 352.3 L 860.6 354.3 L 862.0 357.2 L 863.3 360.9 L 864.7 365.4 L 866.1 370.7 L 867.4 376.7 L 868.8 383.2 L 870.1 390.3 L 871.5 397.7 L 872.9 405.6 L 874.2 413.6 L 875.6 421.8 L 877.0 430.1 L 878.3 438.3 L 879.7 446.4 L 881.0 454.3 L 882.4 461.9 L 883.8 469.1 L 885.1 475.9 L 886.5 482.1 L 887.8 487.9 L 889.2 493.0 L 890.6 497.5 L 891.9 501.3 L 893.3 504.4 L 894.7 506.7 L 896.0 508.4 L 897.4 509.3 L 898.7 509.4 L 900.1 508.9 L 901.5 507.6 L 902.8 505.6 L 904.2 503.0 L 905.6 499.7 L 906.9 495.8 L 908.3 491.3 L 909.6 486.4 L 911.0 481.0 L 912.4 475.3 L 913.7 469.2 L 915.1 462.9 L 916.5 456.4 L 917.8 449.8 L 919.2 443.2 L 920.5 436.7 L 921.9 430.3 L 923.3 424.1 L 924.6 418.3 L 926.0 412.9 L 927.3 407.9 L 928.7 403.4 L 930.1 399.5 L 931.4 396.3 L 932.8 393.8 L 934.2 392.0 L 935.5 390.9 L 936.9 390.6 L 938.2 391.1 L 939.6 392.3 L 941.0 394.3 L 942.3 397.0 L 943.7 400.4 L 945.1 404.5 L 946.4 409.2 L 947.8 414.5 L 949.1 420.2 L 950.5 426.4 L 951.9 432.9 L 953.2 439.7 L 954.6 446.7 L 955.9 453.9 L 957.3 461.2 L 958.7 468.4 L 960.0 475.7 L 961.4 482.8 L 962.8 489.8 L 964.1 496.6 L 965.5 503.2 L 966.8 509.4 L 968.2 515.4 L 969.6 521.1 L 970.9 526.4 L 972.3 531.4 L 973.7 536.1 L 975.0 540.4 L 976.4 544.3 L 977.7 548.0 L 979.1 551.2 L 980.5 554.2 L 981.8 556.9 L 983.2 559.3 L 984.6 561.5 L 985.9 563.4 L 987.3 565.0 L 988.6 566.5 L 990.0 567.8" fill="none" stroke="#00A499" stroke-width="7"/>
  <circle cx="679.0755829006525" cy="636.99515205968" fill="#00A499" opacity="0.75" r="7"/>
  <circle cx="685.3737336525564" cy="644.622791434287" fill="#00A499" opacity="0.75" r="7"/>
  <circle cx="666.7462621536665" cy="635.772309835615" fill="#00A499" opacity="0.75" r="7"/>
  <circle cx="669.4927916994561" cy="623.3164411718105" fill="#00A499" opacity="0.75" r="7"/>
  <circle cx="658.9823258232651" cy="634.2411393378995" fill="#00A499" opacity="0.75" r="7"/>
  <circle cx="653.4111557811652" cy="631.2376411972627" fill="#00A499" opacity="0.75" r="7"/>
  <circle cx="670.1053953911115" cy="627.8135878423113" fill="#00A499" opacity="0.75" r="7"/>
  <circle cx="679.5557940732909" cy="645.0231975150824" fill="#00A499" opacity="0.75" r="7"/>
  <circle cx="672.2308785611665" cy="631.2717645032538" fill="#00A499" opacity="0.75" r="7"/>
  <circle cx="768.1305432130737" cy="645.1432829437438" fill="#00A499" opacity="0.75" r="7"/>
  <circle cx="764.9567812285629" cy="643.2513551516686" fill="#00A499" opacity="0.75" r="7"/>
  <circle cx="759.3876432681302" cy="645.4106947688485" fill="#00A499" opacity="0.75" r="7"/>
  <circle cx="774.47925808633" cy="625.9124161284772" fill="#00A499" opacity="0.75" r="7"/>
  <circle cx="747.875180626965" cy="619.1174276565375" fill="#00A499" opacity="0.75" r="7"/>
  <circle cx="760.1775632089035" cy="617.059128386089" fill="#00A499" opacity="0.75" r="7"/>
  <circle cx="760.5775776011437" cy="651.4973877407976" fill="#00A499" opacity="0.75" r="7"/>
  <circle cx="756.347303780809" cy="636.7990059485479" fill="#00A499" opacity="0.75" r="7"/>
  <circle cx="772.720751163167" cy="619.0095110583301" fill="#00A499" opacity="0.75" r="7"/>
  <circle cx="856.8564225246976" cy="632.2124836115383" fill="#00A499" opacity="0.75" r="7"/>
  <circle cx="862.0655889273087" cy="639.2163366166437" fill="#00A499" opacity="0.75" r="7"/>
  <circle cx="857.2913187343761" cy="624.043380411491" fill="#00A499" opacity="0.75" r="7"/>
  <circle cx="854.8027357403158" cy="620.2165098980831" fill="#00A499" opacity="0.75" r="7"/>
  <circle cx="860.5918522547415" cy="647.8158979415963" fill="#00A499" opacity="0.75" r="7"/>
  <circle cx="853.8047653577197" cy="640.0361801058751" fill="#00A499" opacity="0.75" r="7"/>
  <circle cx="853.1151365472399" cy="645.9697835684406" fill="#00A499" opacity="0.75" r="7"/>
  <circle cx="851.7662748867052" cy="641.8927711005134" fill="#00A499" opacity="0.75" r="7"/>
  <circle cx="841.5434069016983" cy="638.3880090372489" fill="#00A499" opacity="0.75" r="7"/>
  <circle cx="938.5384121056416" cy="637.7387538236694" fill="#00A499" opacity="0.75" r="7"/>
  <circle cx="937.2195523257512" cy="628.1246370807595" fill="#00A499" opacity="0.75" r="7"/>
  <circle cx="946.7597824073043" cy="622.5094059261004" fill="#00A499" opacity="0.75" r="7"/>
  <circle cx="945.2828943737067" cy="635.4529902650011" fill="#00A499" opacity="0.75" r="7"/>
  <circle cx="950.6885001204054" cy="622.0604782673822" fill="#00A499" opacity="0.75" r="7"/>
  <circle cx="937.4453805642028" cy="648.4422214982619" fill="#00A499" opacity="0.75" r="7"/>
  <circle cx="932.6931570807876" cy="618.6191151223867" fill="#00A499" opacity="0.75" r="7"/>
  <circle cx="931.6765693946564" cy="647.3299245321921" fill="#00A499" opacity="0.75" r="7"/>
  <circle cx="938.4096006096306" cy="649.5351110684198" fill="#00A499" opacity="0.75" r="7"/>
  <text fill="#263238" font-family="Arial, Helvetica, sans-serif" font-size="22" font-weight="600" opacity="1.0" text-anchor="middle" x="800.0" y="675.0">fidelidad alta</text>
  <text fill="#263238" font-family="Arial, Helvetica, sans-serif" font-size="22" font-weight="600" opacity="1.0" text-anchor="middle" x="800.0" y="704.7">cobertura alta</text>
  <rect fill="#F4F7F8" height="520" opacity="1.0" rx="24" ry="24" stroke="#C83E4D" stroke-width="4" width="470" x="1075" y="205"/>
  <text fill="#C83E4D" font-family="Arial, Helvetica, sans-serif" font-size="30" font-weight="700" opacity="1.0" text-anchor="middle" x="1310.0" y="260">Mode collapse</text>
  <line stroke="#607D8B" stroke-width="2" x1="1120" x2="1500" y1="575" y2="575"/>
  <path d="M 1120.0 575.0 L 1121.4 575.0 L 1122.7 575.0 L 1124.1 575.0 L 1125.4 575.0 L 1126.8 575.0 L 1128.2 575.0 L 1129.5 575.0 L 1130.9 575.0 L 1132.3 575.0 L 1133.6 575.0 L 1135.0 575.0 L 1136.3 575.0 L 1137.7 575.0 L 1139.1 575.0 L 1140.4 575.0 L 1141.8 575.0 L 1143.2 575.0 L 1144.5 575.0 L 1145.9 575.0 L 1147.2 575.0 L 1148.6 575.0 L 1150.0 575.0 L 1151.3 575.0 L 1152.7 575.0 L 1154.1 575.0 L 1155.4 575.0 L 1156.8 575.0 L 1158.1 575.0 L 1159.5 575.0 L 1160.9 575.0 L 1162.2 575.0 L 1163.6 575.0 L 1164.9 575.0 L 1166.3 575.0 L 1167.7 575.0 L 1169.0 575.0 L 1170.4 575.0 L 1171.8 575.0 L 1173.1 575.0 L 1174.5 575.0 L 1175.8 575.0 L 1177.2 575.0 L 1178.6 575.0 L 1179.9 575.0 L 1181.3 575.0 L 1182.7 575.0 L 1184.0 575.0 L 1185.4 575.0 L 1186.7 574.9 L 1188.1 574.9 L 1189.5 574.9 L 1190.8 574.9 L 1192.2 574.8 L 1193.5 574.8 L 1194.9 574.7 L 1196.3 574.6 L 1197.6 574.6 L 1199.0 574.4 L 1200.4 574.3 L 1201.7 574.1 L 1203.1 573.9 L 1204.4 573.7 L 1205.8 573.3 L 1207.2 573.0 L 1208.5 572.5 L 1209.9 572.0 L 1211.3 571.3 L 1212.6 570.6 L 1214.0 569.7 L 1215.3 568.7 L 1216.7 567.4 L 1218.1 566.0 L 1219.4 564.4 L 1220.8 562.6 L 1222.2 560.5 L 1223.5 558.0 L 1224.9 555.3 L 1226.2 552.3 L 1227.6 548.8 L 1229.0 545.0 L 1230.3 540.8 L 1231.7 536.1 L 1233.0 531.0 L 1234.4 525.4 L 1235.8 519.3 L 1237.1 512.8 L 1238.5 505.8 L 1239.9 498.4 L 1241.2 490.5 L 1242.6 482.1 L 1243.9 473.4 L 1245.3 464.4 L 1246.7 455.0 L 1248.0 445.5 L 1249.4 435.7 L 1250.8 425.8 L 1252.1 416.0 L 1253.5 406.1 L 1254.8 396.5 L 1256.2 387.1 L 1257.6 378.0 L 1258.9 369.4 L 1260.3 361.3 L 1261.6 353.8 L 1263.0 347.0 L 1264.4 341.0 L 1265.7 335.9 L 1267.1 331.7 L 1268.5 328.5 L 1269.8 326.3 L 1271.2 325.1 L 1272.5 325.0 L 1273.9 326.0 L 1275.3 328.0 L 1276.6 331.0 L 1278.0 335.0 L 1279.4 339.9 L 1280.7 345.7 L 1282.1 352.4 L 1283.4 359.7 L 1284.8 367.7 L 1286.2 376.2 L 1287.5 385.2 L 1288.9 394.6 L 1290.3 404.2 L 1291.6 414.0 L 1293.0 423.9 L 1294.3 433.7 L 1295.7 443.5 L 1297.1 453.1 L 1298.4 462.5 L 1299.8 471.7 L 1301.1 480.4 L 1302.5 488.8 L 1303.9 496.8 L 1305.2 504.4 L 1306.6 511.4 L 1308.0 518.1 L 1309.3 524.2 L 1310.7 529.9 L 1312.0 535.1 L 1313.4 539.9 L 1314.8 544.2 L 1316.1 548.1 L 1317.5 551.6 L 1318.9 554.7 L 1320.2 557.5 L 1321.6 560.0 L 1322.9 562.2 L 1324.3 564.1 L 1325.7 565.7 L 1327.0 567.2 L 1328.4 568.4 L 1329.7 569.5 L 1331.1 570.4 L 1332.5 571.2 L 1333.8 571.9 L 1335.2 572.4 L 1336.6 572.9 L 1337.9 573.3 L 1339.3 573.6 L 1340.6 573.9 L 1342.0 574.1 L 1343.4 574.3 L 1344.7 574.4 L 1346.1 574.5 L 1347.5 574.6 L 1348.8 574.7 L 1350.2 574.8 L 1351.5 574.8 L 1352.9 574.9 L 1354.3 574.9 L 1355.6 574.9 L 1357.0 574.9 L 1358.4 575.0 L 1359.7 575.0 L 1361.1 575.0 L 1362.4 575.0 L 1363.8 575.0 L 1365.2 575.0 L 1366.5 575.0 L 1367.9 575.0 L 1369.2 575.0 L 1370.6 575.0 L 1372.0 575.0 L 1373.3 575.0 L 1374.7 575.0 L 1376.1 575.0 L 1377.4 575.0 L 1378.8 575.0 L 1380.1 575.0 L 1381.5 575.0 L 1382.9 575.0 L 1384.2 575.0 L 1385.6 575.0 L 1387.0 575.0 L 1388.3 575.0 L 1389.7 575.0 L 1391.0 575.0 L 1392.4 575.0 L 1393.8 575.0 L 1395.1 575.0 L 1396.5 575.0 L 1397.8 575.0 L 1399.2 575.0 L 1400.6 575.0 L 1401.9 575.0 L 1403.3 575.0 L 1404.7 575.0 L 1406.0 575.0 L 1407.4 575.0 L 1408.7 575.0 L 1410.1 575.0 L 1411.5 575.0 L 1412.8 575.0 L 1414.2 575.0 L 1415.6 575.0 L 1416.9 575.0 L 1418.3 575.0 L 1419.6 575.0 L 1421.0 575.0 L 1422.4 575.0 L 1423.7 575.0 L 1425.1 575.0 L 1426.5 575.0 L 1427.8 575.0 L 1429.2 575.0 L 1430.5 575.0 L 1431.9 575.0 L 1433.3 575.0 L 1434.6 575.0 L 1436.0 575.0 L 1437.3 575.0 L 1438.7 575.0 L 1440.1 575.0 L 1441.4 575.0 L 1442.8 575.0 L 1444.2 575.0 L 1445.5 575.0 L 1446.9 575.0 L 1448.2 575.0 L 1449.6 575.0 L 1451.0 575.0 L 1452.3 575.0 L 1453.7 575.0 L 1455.1 575.0 L 1456.4 575.0 L 1457.8 575.0 L 1459.1 575.0 L 1460.5 575.0 L 1461.9 575.0 L 1463.2 575.0 L 1464.6 575.0 L 1465.9 575.0 L 1467.3 575.0 L 1468.7 575.0 L 1470.0 575.0 L 1471.4 575.0 L 1472.8 575.0 L 1474.1 575.0 L 1475.5 575.0 L 1476.8 575.0 L 1478.2 575.0 L 1479.6 575.0 L 1480.9 575.0 L 1482.3 575.0 L 1483.7 575.0 L 1485.0 575.0 L 1486.4 575.0 L 1487.7 575.0 L 1489.1 575.0 L 1490.5 575.0 L 1491.8 575.0 L 1493.2 575.0 L 1494.6 575.0 L 1495.9 575.0 L 1497.3 575.0 L 1498.6 575.0 L 1500.0 575.0" fill="none" stroke="#C83E4D" stroke-width="7"/>
  <circle cx="1275.3585007194054" cy="652.0397031840491" fill="#C83E4D" opacity="0.75" r="7"/>
  <circle cx="1271.5466517005436" cy="626.326844823762" fill="#C83E4D" opacity="0.75" r="7"/>
  <circle cx="1277.2729443923104" cy="629.3061950092762" fill="#C83E4D" opacity="0.75" r="7"/>
  <circle cx="1283.1234222077796" cy="642.0841967594015" fill="#C83E4D" opacity="0.75" r="7"/>
  <circle cx="1280.7596625548742" cy="644.5065094102631" fill="#C83E4D" opacity="0.75" r="7"/>
  <circle cx="1267.9697602791712" cy="619.229242964602" fill="#C83E4D" opacity="0.75" r="7"/>
  <circle cx="1281.7095355312183" cy="639.5488326035252" fill="#C83E4D" opacity="0.75" r="7"/>
  <circle cx="1294.3235785880026" cy="632.3166038207901" fill="#C83E4D" opacity="0.75" r="7"/>
  <circle cx="1265.305177772165" cy="630.8837311634716" fill="#C83E4D" opacity="0.75" r="7"/>
  <text fill="#C83E4D" font-family="Arial, Helvetica, sans-serif" font-size="22" font-weight="700" opacity="1.0" text-anchor="middle" x="1310.0" y="675.0">fidelidad local alta</text>
  <text fill="#C83E4D" font-family="Arial, Helvetica, sans-serif" font-size="22" font-weight="700" opacity="1.0" text-anchor="middle" x="1310.0" y="704.7">cobertura muy baja</text>
  <rect fill="#FFF0E6" height="72" opacity="1.0" rx="17" ry="17" stroke="#EA7600" stroke-width="2" width="820" x="390" y="770"/>
  <text fill="#263238" font-family="Arial, Helvetica, sans-serif" font-size="26" font-weight="700" opacity="1.0" text-anchor="middle" x="800" y="815">Evaluar calidad visual sin medir diversidad puede ocultar el problema</text>
</svg>
